<mxfile host="app.diagrams.net" modified="2023-01-26T01:04:09.979Z" agent="5.0 (Windows NT 10.0; Win64; x64) AppleWebKit/537.36 (KHTML, like Gecko) Chrome/109.0.0.0 Safari/537.36" etag="YU-45A6WI1MJ7fP5H7A9" version="20.8.10" type="github">
  <diagram name="Page-1" id="G-nYWORIkINnIYw-JmUp">
    <mxGraphModel dx="794" dy="462" grid="1" gridSize="10" guides="1" tooltips="1" connect="1" arrows="1" fold="1" page="1" pageScale="1" pageWidth="850" pageHeight="1100" math="0" shadow="0">
      <root>
        <mxCell id="0" />
        <mxCell id="1" parent="0" />
        <mxCell id="JNx7apnltNPBAi72lnkg-3" value="" style="edgeStyle=orthogonalEdgeStyle;rounded=0;orthogonalLoop=1;jettySize=auto;html=1;" edge="1" parent="1" source="JNx7apnltNPBAi72lnkg-1" target="JNx7apnltNPBAi72lnkg-2">
          <mxGeometry relative="1" as="geometry" />
        </mxCell>
        <mxCell id="JNx7apnltNPBAi72lnkg-1" value="Start" style="ellipse;whiteSpace=wrap;html=1;" vertex="1" parent="1">
          <mxGeometry x="385" y="50" width="80" height="40" as="geometry" />
        </mxCell>
        <mxCell id="JNx7apnltNPBAi72lnkg-6" value="" style="edgeStyle=orthogonalEdgeStyle;rounded=0;orthogonalLoop=1;jettySize=auto;html=1;" edge="1" parent="1" source="JNx7apnltNPBAi72lnkg-2" target="JNx7apnltNPBAi72lnkg-5">
          <mxGeometry relative="1" as="geometry" />
        </mxCell>
        <mxCell id="JNx7apnltNPBAi72lnkg-2" value="Register the Company" style="shape=parallelogram;perimeter=parallelogramPerimeter;whiteSpace=wrap;html=1;fixedSize=1;" vertex="1" parent="1">
          <mxGeometry x="365" y="120" width="120" height="60" as="geometry" />
        </mxCell>
        <mxCell id="JNx7apnltNPBAi72lnkg-8" value="" style="edgeStyle=orthogonalEdgeStyle;rounded=0;orthogonalLoop=1;jettySize=auto;html=1;" edge="1" parent="1" source="JNx7apnltNPBAi72lnkg-5" target="JNx7apnltNPBAi72lnkg-7">
          <mxGeometry relative="1" as="geometry" />
        </mxCell>
        <mxCell id="JNx7apnltNPBAi72lnkg-5" value="Register the&lt;br style=&quot;border-color: var(--border-color);&quot;&gt;Contract &amp;amp; Salary Rules&amp;nbsp;" style="shape=parallelogram;perimeter=parallelogramPerimeter;whiteSpace=wrap;html=1;fixedSize=1;" vertex="1" parent="1">
          <mxGeometry x="365" y="210" width="120" height="60" as="geometry" />
        </mxCell>
        <mxCell id="JNx7apnltNPBAi72lnkg-10" value="" style="edgeStyle=orthogonalEdgeStyle;rounded=0;orthogonalLoop=1;jettySize=auto;html=1;" edge="1" parent="1" source="JNx7apnltNPBAi72lnkg-7" target="JNx7apnltNPBAi72lnkg-9">
          <mxGeometry relative="1" as="geometry" />
        </mxCell>
        <mxCell id="JNx7apnltNPBAi72lnkg-7" value="Register the &lt;br&gt;Structure" style="shape=parallelogram;perimeter=parallelogramPerimeter;whiteSpace=wrap;html=1;fixedSize=1;" vertex="1" parent="1">
          <mxGeometry x="365" y="300" width="120" height="60" as="geometry" />
        </mxCell>
        <mxCell id="JNx7apnltNPBAi72lnkg-14" value="" style="edgeStyle=orthogonalEdgeStyle;rounded=0;orthogonalLoop=1;jettySize=auto;html=1;" edge="1" parent="1" source="JNx7apnltNPBAi72lnkg-9" target="JNx7apnltNPBAi72lnkg-11">
          <mxGeometry relative="1" as="geometry" />
        </mxCell>
        <mxCell id="JNx7apnltNPBAi72lnkg-9" value="Register the &lt;br&gt;Employee" style="shape=parallelogram;perimeter=parallelogramPerimeter;whiteSpace=wrap;html=1;fixedSize=1;" vertex="1" parent="1">
          <mxGeometry x="365" y="390" width="120" height="60" as="geometry" />
        </mxCell>
        <mxCell id="JNx7apnltNPBAi72lnkg-13" value="" style="edgeStyle=orthogonalEdgeStyle;rounded=0;orthogonalLoop=1;jettySize=auto;html=1;" edge="1" parent="1" source="JNx7apnltNPBAi72lnkg-11" target="JNx7apnltNPBAi72lnkg-12">
          <mxGeometry relative="1" as="geometry" />
        </mxCell>
        <mxCell id="JNx7apnltNPBAi72lnkg-11" value="Remuneration" style="whiteSpace=wrap;html=1;" vertex="1" parent="1">
          <mxGeometry x="365" y="480" width="120" height="60" as="geometry" />
        </mxCell>
        <mxCell id="JNx7apnltNPBAi72lnkg-12" value="Employee Payslips" style="whiteSpace=wrap;html=1;" vertex="1" parent="1">
          <mxGeometry x="365" y="570" width="120" height="60" as="geometry" />
        </mxCell>
      </root>
    </mxGraphModel>
  </diagram>
</mxfile>
